<svg xmlns="http://www.w3.org/2000/svg" width="512" height="512" viewBox="0 0 512 512" role="img" aria-label="Fasih">
  <defs>
    <linearGradient id="wash" x1="0" y1="0" x2="1" y2="1">
      <stop offset="0" stop-color="#1A1A17"/>
      <stop offset="1" stop-color="#0E0E0C"/>
    </linearGradient>
  </defs>

  <!-- Warm midnight tile -->
  <rect width="512" height="512" rx="112" fill="url(#wash)"/>

  <!-- Soft coral atmosphere (top-left) -->
  <circle cx="96" cy="88" r="160" fill="#F26B3A" fill-opacity="0.16"/>

  <!-- Subtle raised inner edge -->
  <rect
    x="28"
    y="28"
    width="456"
    height="456"
    rx="96"
    fill="none"
    stroke="#F2EFE8"
    stroke-opacity="0.08"
    stroke-width="2"
  />

  <!-- Bold F (cream) -->
  <path
    fill="#F2EFE8"
    d="M168 128h196c8.8 0 16 7.2 16 16v28c0 8.8-7.2 16-16 16H220v48h128c8.8 0 16 7.2 16 16v28c0 8.8-7.2 16-16 16H220v100c0 8.8-7.2 16-16 16h-36c-8.8 0-16-7.2-16-16V144c0-8.8 7.2-16 16-16z"
  />

  <!-- Coral period — matches site logo -->
  <circle cx="372" cy="372" r="28" fill="#F26B3A"/>
</svg>
